<?xml version="1.0" encoding="UTF-8" standalone="no"?><!DOCTYPE svg PUBLIC "-//W3C//DTD SVG 1.1//EN" "http://www.w3.org/Graphics/SVG/1.1/DTD/svg11.dtd"><svg width="100%" height="100%" viewBox="0 0 512 512" version="1.1" xmlns="http://www.w3.org/2000/svg" xmlns:xlink="http://www.w3.org/1999/xlink" xml:space="preserve" xmlns:serif="http://www.serif.com/" style="fill-rule:evenodd;clip-rule:evenodd;stroke-linejoin:round;stroke-miterlimit:2;"><g><path d="M493.446,158.99c12.5,30.167 19.416,63.25 19.416,97.875c0,70.667 -28.666,134.709 -75,181c-23.583,23.584 -51.791,42.584 -83.125,55.584c-30.166,12.5 -63.25,19.416 -97.875,19.416c-70.666,0 -134.708,-28.666 -181,-75c-23.583,-23.583 -42.583,-51.791 -55.583,-83.125c-12.5,-30.166 -19.417,-63.25 -19.417,-97.875c0,-34.625 6.917,-67.708 19.417,-97.875c13,-31.375 32,-59.541 55.583,-83.125c23.584,-23.583 51.75,-42.625 83.125,-55.583c30.167,-12.5 63.25,-19.417 97.875,-19.417c34.625,0 67.709,6.917 97.875,19.417c31.375,12.958 59.542,32 83.125,55.583c23.584,23.542 42.625,51.75 55.584,83.125Zm-176.959,50.209c10.5,-10.334 27.417,-10.209 37.709,0.333c10.333,10.5 10.208,27.417 -0.334,37.708l-79.041,77.792c-10.417,10.208 -27.042,10.208 -37.417,0l-77.542,-76.292c-10.5,-10.333 -10.625,-27.208 -0.333,-37.708c10.333,-10.5 27.208,-10.625 37.708,-0.333l58.875,57.916l60.375,-59.416Zm127.417,-29.75c-10.25,-24.709 -25.292,-47 -43.958,-65.667c-18.667,-18.667 -40.959,-33.708 -65.667,-43.958c-23.792,-9.875 -49.958,-15.292 -77.417,-15.292c-27.458,0 -53.583,5.458 -77.416,15.292c-24.709,10.25 -47,25.291 -65.667,43.958c-18.667,18.667 -33.708,40.958 -43.958,65.667c-9.875,23.833 -15.292,49.958 -15.292,77.416c0,27.459 5.458,53.584 15.292,77.417c10.25,24.708 25.291,47 43.958,65.667c18.667,18.666 40.917,33.708 65.667,43.958c23.791,9.875 49.958,15.292 77.416,15.292c27.459,-0 53.584,-5.459 77.417,-15.292c24.708,-10.25 47,-25.292 65.667,-43.958c18.666,-18.667 33.708,-40.959 43.958,-65.667c9.875,-23.792 15.292,-49.958 15.292,-77.417c-0,-27.458 -5.459,-53.583 -15.292,-77.416Z" style="fill:#fff;fill-rule:nonzero;"/></g></svg>